<svg width="24" height="10" viewBox="0 0 24 10" xmlns="http://www.w3.org/2000/svg"><path d="M24 3.44951H22.713C22.0631 1.52033 20.2407 0.125261 18.0952 0.125261C15.9002 0.125261 14.041 1.58421 13.4323 3.58281C13.0473 3.32834 12.5535 3.17072 11.9997 3.17072C11.4461 3.17072 10.9524 3.32829 10.5673 3.58276C9.95852 1.58416 8.09896 0.125312 5.90404 0.125312C3.75858 0.125312 1.93624 1.52038 1.28649 3.44956H0V4.44954H1.0626C1.04213 4.63058 1.02929 4.8139 1.02929 5.00032C1.02929 7.68832 3.21608 9.87481 5.90404 9.87481C8.59199 9.87481 10.779 7.68827 10.779 5.00032C10.779 4.97229 10.7753 4.94522 10.7748 4.91729H10.7783C10.7783 4.56426 11.28 4.1707 11.9998 4.1707C12.7197 4.1707 13.2212 4.56426 13.2212 4.91729H13.2249C13.2244 4.94517 13.2207 4.97229 13.2207 5.00032C13.2207 7.68832 15.4072 9.87481 18.0952 9.87481C20.7832 9.87481 22.9702 7.68827 22.9702 5.00032C22.9702 4.8139 22.9574 4.63058 22.9369 4.44954H24V3.44951ZM5.90404 8.87483C3.76757 8.87483 2.02927 7.13653 2.02927 5.00032C2.02927 2.86359 3.76757 1.1253 5.90404 1.1253C8.04076 1.1253 9.77905 2.86359 9.77905 5.00032C9.77905 7.13653 8.04076 8.87483 5.90404 8.87483ZM18.0953 8.87483C15.959 8.87483 14.2207 7.13653 14.2207 5.00032C14.2207 2.86359 15.959 1.1253 18.0953 1.1253C20.232 1.1253 21.9703 2.86359 21.9703 5.00032C21.9702 7.13653 20.2319 8.87483 18.0953 8.87483Z"/></svg>