<svg width="48" height="48" viewBox="0 0 48 48" xmlns="http://www.w3.org/2000/svg">
<path d="M24.2599 17.0161H6.26138C5.87307 17.0161 5.55835 17.3309 5.55835 17.7191C5.55835 18.1075 5.87307 18.4222 6.26138 18.4222H24.26C24.6483 18.4222 24.963 18.1074 24.963 17.7191C24.963 17.3309 24.6483 17.0161 24.2599 17.0161Z" />
<path d="M24.2599 21.9561H6.26138C5.87307 21.9561 5.55835 22.2709 5.55835 22.6591C5.55835 23.0473 5.87307 23.3621 6.26138 23.3621H24.26C24.6483 23.3621 24.963 23.0473 24.963 22.6591C24.963 22.2709 24.6483 21.9561 24.2599 21.9561Z" />
<path d="M24.2599 26.8965H6.26138C5.87307 26.8965 5.55835 27.2113 5.55835 27.5995C5.55835 27.9877 5.87307 28.3025 6.26138 28.3025H24.26C24.6483 28.3025 24.963 27.9877 24.963 27.5995C24.963 27.2113 24.6483 26.8965 24.2599 26.8965Z" />
<path d="M24.963 32.5399C24.963 32.1516 24.6483 31.8369 24.26 31.8369H6.26138C5.87307 31.8369 5.55835 32.1517 5.55835 32.5399C5.55835 32.9282 5.87307 33.243 6.26138 33.243H24.26C24.6483 33.243 24.963 32.9283 24.963 32.5399Z" />
<path d="M6.26138 39.0771C5.87307 39.0771 5.55835 39.392 5.55835 39.7802C5.55835 40.1684 5.87307 40.4832 6.26138 40.4832H15.2837C15.672 40.4832 15.9867 40.1684 15.9867 39.7802C15.9867 39.392 15.672 39.0771 15.2837 39.0771H6.26138Z" />
<path d="M32.3619 8.70509V6.42378C32.3619 5.55472 31.6549 4.84766 30.7858 4.84766H16.3514C15.4823 4.84766 14.7753 5.55472 14.7753 6.42378V8.70509C14.7753 9.57416 15.4823 10.2811 16.3514 10.2811H17.5703C17.9586 10.2811 18.2733 9.96631 18.2733 9.57809C18.2733 9.18978 17.9586 8.87506 17.5703 8.87506H16.3514C16.2577 8.87506 16.1815 8.79884 16.1815 8.70519V6.42378C16.1815 6.33012 16.2577 6.25381 16.3514 6.25381H30.7858C30.8795 6.25381 30.9557 6.33003 30.9557 6.42378V8.70509C30.9557 8.79875 30.8795 8.87497 30.7858 8.87497H17.5819C17.1936 8.87497 16.8788 9.18978 16.8788 9.578C16.8788 9.96631 17.1936 10.281 17.5819 10.281H30.7859C31.6549 10.2812 32.3619 9.57416 32.3619 8.70509Z" />
<path d="M37.6188 40.5C37.2305 40.5 36.9158 40.8148 36.9158 41.203V44.5213C36.9158 45.664 35.9861 46.5938 34.8432 46.5938H3.7405C2.59778 46.5938 1.66796 45.6641 1.66796 44.5213V10.7276C1.66796 10.5755 1.68578 10.4262 1.71756 10.281H8.11909C9.45559 10.281 10.5429 9.19369 10.5429 7.85719V1.45575C10.6881 1.42397 10.8373 1.40616 10.9894 1.40616H34.8431C35.9859 1.40616 36.9157 2.33587 36.9157 3.47869V15.797C36.9157 16.1853 37.2304 16.5 37.6187 16.5C38.0071 16.5 38.3218 16.1852 38.3218 15.797V3.47859C38.3219 1.56056 36.7613 0 34.8432 0H10.9895C10.0604 0 9.18671 0.361875 8.52971 1.01888L1.28068 8.26791C0.623683 8.92491 0.261902 9.79847 0.261902 10.7277V44.5214C0.261902 46.4395 1.82237 48 3.7405 48H34.8432C36.7613 48 38.3219 46.4394 38.3219 44.5214V41.2031C38.3219 40.8148 38.0072 40.5 37.6188 40.5ZM9.13684 2.40037V7.85719C9.13684 8.41838 8.68028 8.87494 8.11909 8.87494H2.66228L9.13684 2.40037Z" />
<path d="M47.2483 25.1252C47.7418 24.4008 47.8695 23.5073 47.5987 22.6737C47.3278 21.84 46.6992 21.1922 45.8742 20.8964C45.3269 20.7 44.9618 20.1975 44.9443 19.6163C44.9178 18.7402 44.4958 17.9422 43.7866 17.4269C43.0776 16.9118 42.1881 16.7572 41.347 17.0026C40.7884 17.1656 40.198 16.9736 39.8422 16.5137C39.3058 15.8204 38.4955 15.4229 37.6189 15.4229C36.7424 15.4229 35.932 15.8204 35.3955 16.5137C35.0396 16.9737 34.4489 17.1654 33.8908 17.0026C33.0496 16.757 32.1602 16.9118 31.451 17.4269C30.7419 17.9422 30.3201 18.7401 30.2935 19.6162C30.2759 20.1974 29.9109 20.6999 29.3635 20.8963C28.5385 21.1921 27.9099 21.84 27.6391 22.6736C27.3683 23.5072 27.496 24.4008 27.9895 25.1251C28.3168 25.6058 28.3168 26.2268 27.9895 26.7074C27.496 27.4318 27.3683 28.3253 27.6391 29.1589C27.9099 29.9925 28.5385 30.6404 29.3635 30.9363C29.9109 31.1327 30.276 31.6351 30.2935 32.2164C30.3179 33.0223 30.6872 33.7795 31.3069 34.2937C31.7157 34.6331 32.2069 34.8454 32.7209 34.9164V41.3174C32.7209 41.8575 33.0139 42.3568 33.4854 42.6201C33.9563 42.8833 34.5352 42.8715 34.9954 42.5881L37.574 41.0008C37.616 40.9748 37.641 40.9865 37.6642 41.0008L40.2426 42.5881C40.7026 42.8713 41.2813 42.8834 41.7527 42.62C42.2243 42.3566 42.5171 41.8573 42.5171 41.3174V34.9162C43.031 34.8453 43.5221 34.633 43.931 34.2937C44.5508 33.7795 44.9201 33.0223 44.9446 32.2163C44.962 31.635 45.3272 31.1325 45.8745 30.9362C46.6996 30.6404 47.3282 29.9924 47.5989 29.1588C47.8698 28.3252 47.7421 27.4317 47.2486 26.7073C46.9209 26.2269 46.9209 25.6059 47.2483 25.1252ZM40.9795 41.3908L38.401 39.8034C37.9217 39.5084 37.3165 39.5079 36.8366 39.8034L34.2581 41.3907C34.1995 41.4264 34.127 41.3852 34.127 41.3174V34.7829C34.6104 34.7269 35.0896 34.9236 35.3955 35.3189C35.932 36.0121 36.7424 36.4097 37.619 36.4097C38.4955 36.4097 39.3058 36.0121 39.8422 35.3189C40.1482 34.9235 40.6275 34.7269 41.1108 34.7829V41.3174C41.1108 41.3857 41.0374 41.4265 40.9795 41.3908ZM46.0863 27.4993C46.333 27.8613 46.3968 28.3078 46.2614 28.7245C46.126 29.1411 45.8119 29.4649 45.3995 29.6129C44.3043 30.0057 43.574 31.0109 43.5388 32.1739C43.5264 32.5828 43.3466 32.9513 43.0329 33.2117C42.6801 33.5045 42.2023 33.6149 41.7409 33.4803C40.624 33.1544 39.4421 33.5384 38.73 34.4585C38.462 34.8049 38.0569 35.0037 37.6188 35.0037C37.1808 35.0037 36.7757 34.805 36.5075 34.4585C35.9638 33.7558 35.1462 33.3658 34.2928 33.3658C34.0286 33.3658 33.7609 33.4032 33.4969 33.4802C33.031 33.616 32.5546 33.5022 32.2046 33.2116C31.8909 32.9512 31.7111 32.5827 31.6989 32.1739C31.6636 31.0109 30.9333 30.0057 29.838 29.6128C29.4257 29.4648 29.1116 29.1411 28.9762 28.7245C28.8408 28.3078 28.9046 27.8612 29.1513 27.4992C29.8063 26.5376 29.8063 25.2951 29.1513 24.3335C28.9046 23.9714 28.8408 23.5248 28.9762 23.1081C29.1116 22.6915 29.4257 22.3677 29.838 22.2198C30.9333 21.8269 31.6636 20.8216 31.6989 19.6587C31.7121 19.2208 31.9228 18.8219 32.2773 18.5645C32.6316 18.307 33.076 18.2297 33.4968 18.3524C34.6134 18.6783 35.7955 18.2942 36.5075 17.3742C36.7756 17.0277 37.1806 16.8289 37.6188 16.8289C38.0569 16.8289 38.4619 17.0276 38.73 17.3741C39.442 18.2942 40.6237 18.6782 41.7408 18.3524C42.1614 18.2295 42.6057 18.3069 42.9602 18.5644C43.3147 18.8219 43.5256 19.2208 43.5387 19.6586C43.574 20.8215 44.3043 21.8269 45.3995 22.2197C45.8119 22.3676 46.1259 22.6914 46.2614 23.108C46.3968 23.5246 46.333 23.9714 46.0863 24.3333C45.4311 25.295 45.4311 26.5377 46.0863 27.4993Z" />
<path d="M37.6189 20.0234C34.3697 20.0234 31.7263 22.6668 31.7263 25.916C31.7263 29.1652 34.3697 31.8085 37.6189 31.8085C40.868 31.8085 43.5113 29.1652 43.5113 25.916C43.5113 22.6668 40.868 20.0234 37.6189 20.0234ZM37.6189 30.4025C35.145 30.4025 33.1324 28.3899 33.1324 25.9161C33.1324 23.4423 35.145 21.4296 37.6189 21.4296C40.0928 21.4296 42.1053 23.4422 42.1053 25.9161C42.1053 28.39 40.0927 30.4025 37.6189 30.4025Z"/>
</svg>
