<svg width="343" height="343" viewBox="0 0 343 343" xmlns="http://www.w3.org/2000/svg">
<path d="M177.001 42.2594C184.152 35.1088 195.745 35.1088 202.896 42.2594L337.637 177.001C344.788 184.152 344.788 195.745 337.637 202.896L202.896 337.637C195.745 344.788 184.152 344.788 177.001 337.637L42.2594 202.896C35.1088 195.745 35.1088 184.152 42.2594 177.001L177.001 42.2594Z"/>
<path opacity="0.3" d="M158.495 23.1518C165.677 15.9693 177.323 15.9693 184.505 23.1518L319.848 158.495C327.031 165.677 327.031 177.323 319.848 184.505L184.505 319.848C177.323 327.031 165.677 327.031 158.495 319.848L23.1518 184.505C15.9693 177.323 15.9693 165.677 23.1518 158.495L158.495 23.1518Z"/>
<path opacity="0.15" d="M140.105 5.36295C147.255 -1.78764 158.849 -1.78765 165.999 5.36294L300.741 140.105C307.891 147.255 307.891 158.849 300.741 165.999L165.999 300.741C158.849 307.891 147.255 307.891 140.105 300.741L5.36295 165.999C-1.78764 158.849 -1.78765 147.255 5.36294 140.105L140.105 5.36295Z"/>
</svg>
