<svg width="34" height="34" viewBox="0 0 34 34" fill="none" xmlns="http://www.w3.org/2000/svg">
<g clip-path="url(#clip0_1492_1790)">
<path d="M13.445 18.9768C14.6286 20.3916 16.0534 21.5056 17.6796 22.2938C18.2987 22.5872 19.1267 22.9354 20.0493 22.995C20.1064 22.9975 20.1611 23 20.2183 23C20.8375 23 21.3348 22.7862 21.7401 22.346C21.7426 22.3436 21.7476 22.3386 21.75 22.3336C21.8943 22.1596 22.0584 22.0029 22.2299 21.8363C22.3468 21.7244 22.4662 21.6075 22.5805 21.4882C23.1102 20.9362 23.1102 20.235 22.5756 19.7004L21.0812 18.206C20.8275 17.9424 20.5242 17.8032 20.2059 17.8032C19.8876 17.8032 19.5818 17.9424 19.3207 18.2035L18.4305 19.0937C18.3485 19.0464 18.2639 19.0041 18.1844 18.9644C18.0849 18.9146 17.9929 18.8674 17.9108 18.8152C17.1002 18.3005 16.3642 17.6291 15.6605 16.7663C15.3049 16.3162 15.0662 15.9383 14.8996 15.5528C15.1334 15.3415 15.3522 15.1202 15.5635 14.9039C15.6381 14.8268 15.7152 14.7497 15.7923 14.6726C16.0609 14.4041 16.2051 14.0932 16.2051 13.7775C16.2051 13.4617 16.0633 13.1509 15.7923 12.8823L15.0513 12.1413C14.9643 12.0543 14.8822 11.9698 14.7977 11.8827C14.6336 11.7136 14.462 11.5396 14.2929 11.3829C14.0368 11.1318 13.7359 11 13.4177 11C13.1019 11 12.7985 11.1318 12.5325 11.3854L11.6025 12.3154C11.2643 12.6535 11.0729 13.0638 11.0331 13.5388C10.9858 14.133 11.0953 14.7646 11.3787 15.528C11.8139 16.7091 12.4703 17.8056 13.445 18.9768ZM11.6398 13.591C11.6696 13.2603 11.7965 12.9843 12.0352 12.7455L12.9601 11.8206C13.1044 11.6813 13.2635 11.6092 13.4177 11.6092C13.5694 11.6092 13.7235 11.6813 13.8652 11.8255C14.0318 11.9797 14.1885 12.1413 14.3576 12.3129C14.4421 12.3999 14.5292 12.4869 14.6162 12.5765L15.3572 13.3175C15.5113 13.4716 15.5909 13.6283 15.5909 13.7824C15.5909 13.9366 15.5113 14.0932 15.3572 14.2474C15.2801 14.3245 15.203 14.4041 15.1259 14.4811C14.8947 14.7149 14.6783 14.9362 14.4396 15.1475C14.4347 15.1525 14.4322 15.155 14.4272 15.16C14.2208 15.3664 14.2531 15.5628 14.3029 15.712C14.3054 15.7194 14.3079 15.7244 14.3103 15.7319C14.5018 16.1919 14.7679 16.6295 15.1831 17.1517C15.9291 18.0717 16.7148 18.7853 17.5801 19.3349C17.687 19.4045 17.8014 19.4592 17.9083 19.5139C18.0078 19.5636 18.0998 19.6109 18.1819 19.6631C18.1918 19.6681 18.1993 19.673 18.2092 19.678C18.2913 19.7203 18.3708 19.7402 18.4504 19.7402C18.6493 19.7402 18.7786 19.6133 18.8209 19.5711L19.7509 18.6411C19.8951 18.4969 20.0517 18.4198 20.2059 18.4198C20.3949 18.4198 20.549 18.5367 20.646 18.6411L22.1454 20.138C22.4438 20.4364 22.4413 20.7596 22.1379 21.0754C22.0335 21.1873 21.9241 21.2942 21.8072 21.4061C21.6332 21.5752 21.4517 21.7493 21.2875 21.9457C21.0016 22.254 20.6609 22.3983 20.2208 22.3983C20.1785 22.3983 20.1338 22.3958 20.0915 22.3933C19.2759 22.3411 18.5175 22.0228 17.9481 21.7518C16.4015 21.0033 15.0439 19.9416 13.9175 18.5939C12.99 17.4774 12.3659 16.438 11.9531 15.3241C11.697 14.6403 11.6 14.0908 11.6398 13.591Z" fill="#E27410"/>
</g>
<rect x="0.5" y="0.5" width="33" height="33" rx="4.5" stroke="#E27410"/>
<defs>
<clipPath id="clip0_1492_1790">
<rect width="12" height="12" fill="white" transform="translate(11 11)"/>
</clipPath>
</defs>
</svg>
